<?xml version="1.0" encoding="UTF-8"?>
<svg version="1.1" xmlns="http://www.w3.org/2000/svg" width="400" height="400">
<path d="M0 0 C132 0 264 0 400 0 C400 132 400 264 400 400 C268 400 136 400 0 400 C0 268 0 136 0 0 Z " fill="#971B1E" transform="translate(0,0)"/>
<path d="M0 0 C9.24 0 18.48 0 28 0 C29.60875 3.238125 31.2175 6.47625 32.875 9.8125 C36.3654928 16.80995748 39.89658243 23.7802732 43.5625 30.6875 C48.34948188 39.70984082 53.02230013 48.78931255 57.6875 57.875 C59.26032551 60.93754682 60.8332387 64.0000486 62.40625 67.0625 C62.98972702 68.19850899 62.98972702 68.19850899 63.58499146 69.35746765 C67.27338274 76.53642491 70.97728655 83.707301 74.6875 90.875 C75.29352051 92.04579102 75.89954102 93.21658203 76.52392578 94.42285156 C77.73883685 96.76958066 78.95384281 99.11626064 80.16894531 101.46289062 C82.03814422 105.07368447 83.9060676 108.68513507 85.7734375 112.296875 C92.41781073 125.14757557 99.06922991 137.99458259 105.73071289 150.83642578 C108.72964641 156.61860888 111.72645137 162.4018811 114.71875 168.1875 C115.03015427 168.7895929 115.34155853 169.39168579 115.66239929 170.01202393 C117.23231281 173.04774898 118.80167752 176.08375651 120.37036133 179.12011719 C123.54199599 185.25768182 126.72237567 191.39049708 129.91796875 197.515625 C130.86962078 199.34212327 131.82107269 201.16872565 132.77246094 202.99536133 C133.65755856 204.6925856 134.54552638 206.38831212 135.43359375 208.08398438 C135.975 209.12361328 136.51640625 210.16324219 137.07421875 211.234375 C137.54432373 212.13381836 138.01442871 213.03326172 138.4987793 213.95996094 C140.45248243 217.91629716 142.20794182 221.96786909 144 226 C133.77 226 123.54 226 113 226 C111.02 222.2875 111.02 222.2875 109 218.5 C108.40445313 217.3872168 108.40445313 217.3872168 107.796875 216.25195312 C103.71880372 208.57513611 99.87136889 200.78225026 96 193 C83.71043913 168.12157621 83.71043913 168.12157621 70.92626953 143.49682617 C65.44099233 133.18239981 60.31583003 122.67754361 55.125 112.21289062 C51.21444301 104.34247193 47.24373691 96.51373768 43.125 88.75 C37.38800354 77.93069961 31.9456666 66.96803273 26.5 56 C24.55439721 52.08217705 22.60610846 48.16570633 20.65625 44.25 C20.21671997 43.3626416 19.77718994 42.4752832 19.32434082 41.56103516 C18.91631226 40.7416748 18.50828369 39.92231445 18.08789062 39.078125 C17.73166626 38.36043945 17.37544189 37.64275391 17.00842285 36.90332031 C15.91779763 34.76770043 15.91779763 34.76770043 14 32 C12.05076614 35.20084344 10.20543824 38.4253821 8.46875 41.74609375 C7.99356934 42.65456055 7.51838867 43.56302734 7.02880859 44.49902344 C6.52430176 45.4687207 6.01979492 46.43841797 5.5 47.4375 C4.97100098 48.45231445 4.44200195 49.46712891 3.89697266 50.51269531 C-0.15336519 58.30932419 -4.09573106 66.15605952 -8.00292969 74.02514648 C-10.84124364 79.72666296 -13.75708598 85.37829138 -16.75 91 C-21.14547282 99.26141371 -25.33273034 107.62209196 -29.5 116 C-33.54294907 124.12778623 -37.59730831 132.24227956 -41.875 140.25 C-46.98711314 149.82423251 -51.79188814 159.55005888 -56.62768555 169.265625 C-61.1566995 178.36115618 -65.73003364 187.42202833 -70.51538086 196.38623047 C-74.32258432 203.53965708 -77.92421931 210.79366636 -81.51123047 218.05957031 C-81.95225098 218.94999023 -82.39327148 219.84041016 -82.84765625 220.7578125 C-83.23961182 221.5533252 -83.63156738 222.34883789 -84.03540039 223.16845703 C-85 225 -85 225 -86 226 C-88.21855264 226.08783542 -90.43988496 226.10694609 -92.66015625 226.09765625 C-93.65685585 226.09553383 -93.65685585 226.09553383 -94.6736908 226.09336853 C-96.80333899 226.08775518 -98.93288339 226.07520054 -101.0625 226.0625 C-102.50325369 226.05748671 -103.94400903 226.05292351 -105.38476562 226.04882812 C-108.92321102 226.03778145 -112.46159539 226.02050792 -116 226 C-114.39911274 220.54187852 -111.94469045 215.70570235 -109.34375 210.67578125 C-108.88198364 209.7749028 -108.42021729 208.87402435 -107.94445801 207.94584656 C-106.46693262 205.06601023 -104.98345263 202.18928673 -103.5 199.3125 C-102.53348663 197.42922504 -101.56733756 195.54576306 -100.6015625 193.66210938 C-95.65401366 184.02458632 -90.65445281 174.41609474 -85.5965271 164.83607483 C-81.75833322 157.55982082 -77.99209353 150.24762194 -74.240448 142.92645264 C-68.84098413 132.39106471 -63.42823439 121.86317943 -57.9375 111.375 C-53.19336551 102.30997495 -48.49547708 93.22171782 -43.8125 84.125 C-43.45391907 83.42846313 -43.09533813 82.73192627 -42.72589111 82.01428223 C-40.51932094 77.72759149 -38.31354484 73.44049244 -36.10791016 69.15332031 C-30.07749652 57.43268386 -24.04255802 45.7143803 -18 34 C-17.66254761 33.34572021 -17.32509521 32.69144043 -16.97741699 32.01733398 C-15.01903399 28.22086697 -13.05876161 24.42538565 -11.09579468 20.63128662 C-10.21761524 18.93323109 -9.34083827 17.23445047 -8.46411133 15.53564453 C-7.93325928 14.51067871 -7.40240723 13.48571289 -6.85546875 12.4296875 C-6.39809326 11.54522949 -5.94071777 10.66077148 -5.46948242 9.74951172 C-3.71306467 6.4631225 -1.84876557 3.23533975 0 0 Z " fill="#FDFCFC" transform="translate(187,72)"/>
</svg>
